<?xml version="1.0" encoding="UTF-8"?>
<svg width="130px" height="130px" viewBox="0 0 130 130" version="1.1" xmlns="http://www.w3.org/2000/svg" xmlns:xlink="http://www.w3.org/1999/xlink">
    <!-- Generator: Sketch 53.2 (72643) - https://sketchapp.com -->
    <title>Website Logo@1x</title>
    <desc>Created with Sketch.</desc>
    <g id="Website-Logo" stroke="none" stroke-width="1" fill="none" fill-rule="evenodd">
        <g id="Oyama-Bonsai-Kai_Flat" transform="translate(1.000000, 1.000000)">
            <g>
                <g id="Layer_2" fill-rule="nonzero">
                    <circle id="Oval" stroke="#000000" stroke-width="2" fill="#970203" cx="64.0782979" cy="63.9659574" r="63.8502128"></circle>
                    <path d="M76.5957447,71.6255319 L76.5957447,69.4468085 C76.5140874,70.1707543 76.5140874,70.9015861 76.5957447,71.6255319 L76.5957447,71.6255319 Z" id="Path" fill="#000000"></path>
                    <path d="M121.324255,63.3429787 C121.325351,59.945176 121.026891,56.5538917 120.43234,53.2085106 C119.902105,49.7273142 119.156274,46.2823912 118.199149,42.893617 C117.853285,41.6845876 117.184853,40.5925022 116.265532,39.7344681 C105.14501,15.0792672 78.3207318,1.53353161 51.8781979,7.22012451 C25.435664,12.9067174 6.55148564,36.2822743 6.54978723,63.3293617 L6.59744681,63.3293617 C6.38978723,68.5480851 6.78808511,75.3770213 9.36170213,81.1438298 C9.36170213,81.1438298 9.36170213,78.7608511 12.0851064,78.9310638 C12.0851064,78.9310638 14.8085106,78.9310638 16.8510638,77.5693617 C16.8510638,77.5693617 18.7234043,76.5480851 20.0851064,76.5480851 C20.0851064,76.5480851 20.9361702,71.9523404 25.3617021,72.292766 C25.3617021,72.292766 27.5744681,70.2502128 29.787234,70.4204255 C29.787234,70.4204255 30.8085106,67.0161702 34.212766,67.5268085 C34.212766,67.5268085 37.9574468,68.0374468 38.6382979,69.3991489 L40.6808511,74.3080851 C40.6808511,74.3080851 40.8510638,67.7617021 44.5957447,67.4757447 L75.2340426,67.4757447 C75.2340426,67.4757447 76.5957447,68.0374468 76.5957447,68.5480851 L76.5957447,69.4468085 C76.7625532,68.173617 77.3276596,66.9242553 78.9787234,67.506383 L87.6595745,67.36 C87.6595745,67.36 90.0425532,67.7276596 90.3829787,69.0893617 C90.3829787,69.0893617 97.5319149,69.2595745 99.4042553,71.6425532 L101.787234,74.267234 C101.787234,74.267234 102.297872,76.0680851 106.553191,71.9829787 C106.553191,71.9829787 109.617021,69.0893617 111.489362,73.1744681 C112.408511,75.1795745 119.319149,77.2595745 119.319149,77.2595745 C119.319149,77.2595745 121.276596,72.3574468 121.245957,63.36 L121.324255,63.3429787 Z" id="Path" fill="#000000"></path>
                    <path d="M49.787234,81.0723404 L51.8297872,79.4553191 C51.8297872,79.4553191 52.3404255,78.1787234 53.2765957,78.093617 C53.2765957,78.093617 54.0425532,78.7744681 55.4893617,77.3276596 C55.4893617,77.3276596 58.7234043,74.5191489 59.6595745,74.7744681 L59.6595745,73.2425532 L58.893617,71.7957447 L57.8723404,71.7957447 C57.8723404,71.7957447 57.4468085,71.0297872 58.2978723,70.2638298 C58.2978723,70.2638298 59.4893617,68.306383 58.0425532,68.7319149 C58.0425532,68.7319149 56.6808511,69.412766 54.7234043,67.2 L53.2765957,65.7531915 C53.2765957,65.7531915 54.4680851,65.3276596 53.7021277,64.4765957 C53.7021277,64.4765957 52,64.3914894 52.5957447,63.8808511 L53.0212766,62.9446809 C53.0212766,62.9446809 53.3617021,62.3489362 52.6808511,62.2638298 C52.6808511,62.2638298 51.5744681,60.5617021 53.8723404,60.7319149 L54.7234043,61.2425532 L55.3191489,61.4978723 C55.5833062,61.4931331 55.8438038,61.4352447 56.0851064,61.3276596 C56.4255319,61.1574468 58.4680851,60.987234 59.2340426,61.412766 C59.2340426,61.412766 61.1914894,61.3889362 61.106383,60.7319149 C61.106383,60.7319149 61.4468085,59.8706383 62.6382979,60.7319149 C62.6382979,60.7319149 63.0638298,61.412766 64.7659574,61.1710638 C64.7659574,61.1710638 65.4468085,62.0221277 67.0638298,61.2561702 C67.0638298,61.2561702 67.8297872,60.8306383 68.1702128,61.0008511 C68.5106383,61.1710638 68.7659574,59.8808511 68.7659574,59.8808511 L69.3617021,59.8808511 L69.3617021,58.7744681 L73.2765957,58.7744681 L73.2765957,59.8808511 C73.2765957,59.8808511 74.1276596,60.6468085 74.9787234,59.6255319 C74.9787234,59.6255319 75.1489362,58.0085106 76.5957447,58.7744681 C76.5957447,58.7744681 77.787234,59.2851064 76.5957447,60.987234 C76.5957447,60.987234 74.08,62.2638298 77.1268085,61.5829787 C77.1268085,61.5829787 78.893617,60.6468085 80,62.0085106 L74.0425532,65.5829787 L70.2978723,67.6255319 L68.8510638,67.8808511 C68.8510638,67.8808511 67.4042553,67.8808511 69.3617021,69.1574468 C69.3617021,69.1574468 70.3829787,70.093617 70.4680851,70.8595745 C70.4680851,70.8595745 70.1276596,72.1361702 72.2553191,71.7957447 C72.2553191,71.7957447 72.7659574,72.1361702 72.5106383,74.4340426 C72.5106383,74.4340426 73.4468085,75.7106383 73.2765957,76.2212766 L73.106383,76.7319149 L72.5106383,77.6680851 L73.3617021,78.5191489 C73.3617021,78.5191489 75.8297872,77.8382979 75.7446809,79.1148936 L75.6595745,80.2212766 C75.6595745,80.2212766 80.5957447,79.5404255 80.7659574,81.0723404 L49.787234,81.0723404 Z" id="Path" fill="#9B7A65"></path>
                    <path d="M64.5957447,80.987234 L42.3829787,80.987234 L42.3829787,82.0085106 C42.3829787,82.0085106 45.3412766,81.7531915 45.0791489,84.2212766 C45.0791489,84.2212766 45.0791489,91.6255319 50.8221277,92.987234 C50.8221277,92.987234 53.9234043,93.7531915 56.7080851,92.987234 C56.7080851,92.987234 59.2612766,91.3123404 59.9557447,91.0876596 L69.2357447,91.0876596 C69.9165957,91.3123404 72.4834043,92.987234 72.4834043,92.987234 C75.2680851,93.7531915 78.3693617,92.987234 78.3693617,92.987234 C84.1123404,91.6255319 84.1123404,84.2212766 84.1123404,84.2212766 C83.8502128,81.7531915 86.8085106,82.0085106 86.8085106,82.0085106 L86.8085106,80.987234 L64.5957447,80.987234 Z" id="Path" fill="#0E345B"></path>
                    <path d="M38.8085106,57.4978723 L37.787234,57.4978723 C37.787234,57.4978723 36.6808511,61.5829787 39.4042553,61.1574468 C39.4042553,61.1574468 44.3404255,62.1787234 44.5106383,60.0510638 C44.5106383,60.0510638 47.2340426,59.8808511 47.1489362,58.8595745 L49.4468085,58.7744681 C49.4468085,58.7744681 51.6595745,58.9446809 51.4893617,58.0085106 C51.4893617,58.0085106 53.3617021,58.3489362 53.3617021,57.4978723 C53.3617021,57.4978723 55.5744681,58.8595745 56.6808511,57.4978723 C56.6808511,57.4978723 57.9574468,59.4553191 59.8297872,57.4978723 C59.8297872,57.4978723 60,59.6153191 62.8085106,59.4485106 C62.8085106,59.4485106 66.2978723,59.7106383 66.0425532,57.4978723 C66.0425532,57.4978723 65.9574468,59.2 67.8297872,58.6893617 C67.8297872,58.6893617 69.0212766,58.5191489 68.9361702,57.4978723 C68.9361702,57.4978723 69.106383,58.9446809 70.6382979,58.0085106 C70.6382979,58.0085106 70.8085106,57.0723404 72.1702128,57.4978723 C72.4805799,58.240493 73.2423316,58.690619 74.0425532,58.6042553 C74.0425532,58.6042553 72.0851064,61.307234 75.2340426,61.4025532 C76.8443585,61.8925933 78.5815232,61.7438676 80.0851064,60.987234 C81.3477647,61.2314056 82.642635,61.2601805 83.9148936,61.0723404 C83.9148936,61.0723404 84.5106383,63.3225532 86.3829787,61.6851064 L86.8085106,60.6468085 C86.8085106,60.6468085 87.4042553,62.6417021 89.3617021,62.2808511 C89.3617021,62.2808511 95.2340426,63.2851064 95.3191489,60.8170213 C95.3191489,60.8170213 96.5957447,58.7744681 94.893617,58.8595745 L94.0425532,59.1148936 C94.0425532,59.1148936 94.8085106,57.9234043 93.3617021,58.3489362 C93.3617021,58.3489362 92.5957447,57.2765957 93.5319149,57.3855319 C93.5319149,57.3855319 92.9361702,55.2851064 90.9787234,56.9021277 C90.9787234,56.9021277 89.9574468,56.7319149 90.5531915,55.6255319 C90.5531915,55.6255319 91.5744681,53.1574468 89.106383,53.8382979 L88.2553191,54.6042553 C88.2553191,54.6042553 88.5957447,51.7106383 85.8723404,53.3276596 L84.8510638,53.7531915 L85.0212766,52.8374468 L83.5744681,52.8374468 C83.5744681,52.8374468 82.7234043,51.2374468 81.1914894,52.8374468 L80.8510638,53.2425532 C80.8510638,53.2425532 80.0851064,52.1361702 79.4042553,52.5617021 L78.7234043,52.987234 L78.893617,53.412766 C78.893617,53.412766 78.4680851,51.3702128 76.7659574,52.8170213 L75.0638298,52.8170213 C75.1936963,51.7001478 76.0746159,50.8192282 77.1914894,50.6893617 C77.1914894,50.6893617 78.5531915,51.8808511 80.5106383,50.6893617 L81.7021277,50.6893617 L84.0851064,51.8808511 L84.1702128,49.4978723 L82.0425532,49.4978723 C82.0425532,49.4978723 81.4468085,48.7319149 82.5531915,48.5617021 C82.5531915,48.5617021 83.8297872,46.3489362 81.3617021,46.4340426 L79.9148936,46.4340426 L78.893617,45.6714894 L77.6170213,45.6714894 C77.6170213,45.6714894 77.3617021,43.2885106 75.0638298,44.7353191 C74.494929,45.123762 74.0748233,45.6939055 73.8723404,46.3523404 C73.8723404,46.3523404 72.3404255,48.2246809 72.1702128,46.0970213 L72.3404255,45.4161702 C72.3404255,45.4161702 73.9574468,45.3344681 73.106383,44.2689362 C73.106383,44.2689362 72.5957447,42.4408511 70.8085106,44.2689362 C70.8085106,44.2689362 68.1702128,45.4978723 68.5957447,43.4553191 C68.7188604,43.1418834 69.0250736,42.9391022 69.3617021,42.9480851 C69.3617021,42.9480851 71.1489362,43.7991489 71.3191489,42.3523404 C71.3191489,42.3523404 70.9787234,41.1608511 72.2553191,41.3310638 C72.2553191,41.3310638 72.8510638,43.373617 74.5531915,43.0331915 L75.6595745,42.9480851 C75.6595745,42.9480851 76.5106383,45.0757447 78.2978723,43.2034043 C78.2978723,43.2034043 79.6595745,37.6714894 75.9148936,39.9693617 C75.9148936,39.9693617 74.6382979,40.3097872 74.5531915,38.692766 C74.5531915,38.692766 74.9787234,36.0544681 72.3404255,37.7565957 L72,35.9693617 L70.6382979,36.48 C70.6382979,36.48 69.8723404,35.2034043 70.9787234,35.2034043 C72.0851064,35.2034043 71.0638298,34.7778723 71.0638298,34.7778723 C71.0638298,34.7778723 69.7021277,34.0119149 68.8510638,34.7778723 C68.8510638,34.7778723 67.2340426,34.267234 68.3404255,32.5651064 C68.3404255,32.5651064 66.6382979,31.1182979 65.106383,33.8417021 C65.106383,33.8417021 65.1914894,34.692766 63.6595745,34.692766 C63.6595745,34.692766 62.212766,34.5225532 62.0425532,35.7991489 C62.0425532,35.7991489 60.2553191,35.7991489 60.2553191,36.48 C60.2553191,36.48 58.1276596,36.1395745 57.3617021,38.692766 C57.3617021,38.692766 57.3617021,39.6289362 58.6382979,39.5438298 C58.6382979,39.5438298 60.6808511,41.0757447 59.1489362,41.0757447 C59.1489362,41.0757447 57.0212766,37.4161702 54.893617,39.7140426 L54.6382979,40.6502128 C54.6382979,40.6502128 52.2553191,39.373617 52.0851064,42.0119149 C52.0851064,42.0119149 47.7446809,41.0757447 49.787234,44.5651064 C49.787234,44.5651064 50.3829787,45.586383 53.1914894,45.2459574 C53.1914894,45.2459574 55.4042553,45.2459574 53.4468085,45.9268085 C53.4468085,45.9268085 51.5744681,46.0970213 50.4680851,45.6714894 C50.4680851,45.6714894 48.4255319,44.3097872 48.1702128,46.6076596 C48.1702128,46.6076596 46.212766,47.5438298 47.1489362,50.0970213 C47.1489362,50.0970213 44.5106383,49.3310638 44.6808511,51.1182979 C44.6808511,51.1182979 42.7234043,52.5651064 46.212766,52.5651064 C47.0699969,52.6933984 47.9449043,52.5123831 48.6808511,52.0544681 C48.6808511,52.0544681 50.893617,52.2246809 48.9361702,53.4161702 C48.9361702,53.4161702 45.9574468,54.5225532 44.3404255,53.4161702 C44.3404255,53.4161702 43.0638298,52.2246809 42.1276596,53.586383 C42.1276596,53.5829787 38.212766,53.8382979 38.8085106,57.4978723 Z" id="Path" fill="#517A4F"></path>
                    <path d="M16.5685106,42.5531915 C16.5685106,42.5531915 19.3191489,47.0195745 19.8297872,44.7217021 C19.8297872,44.7217021 20.4255319,37.572766 23.4042553,32.466383 C23.4042553,32.466383 25.4468085,29.4025532 23.4042553,30.0834043 C23.4042553,30.093617 16,38.5191489 16.5685106,42.5531915 Z" id="Path" fill="#FFDF40"></path>
                    <path d="M25.787234,44.1361702 C25.787234,44.1361702 28.4255319,47.7957447 34.3829787,44.1361702 C34.3829787,44.1361702 39.1489362,41.2425532 36.2553191,36.8170213 C36.2553191,36.8170213 33.1914894,32.5617021 29.1914894,36.306383 C29.1914894,36.306383 28.0851064,37.0723404 26.9787234,39.2 C26.9787234,39.2 25.787234,42.6042553 24.7659574,39.2 L24.7659574,35.7957447 C24.7659574,35.7957447 24.3404255,34.093617 26.3829787,32.6570213 C26.3829787,32.6570213 33.2765957,26.1038298 38.212766,31.9761702 C38.212766,31.9761702 42.6382979,36.7591489 37.1914894,45.773617 C37.1914894,45.773617 31.2340426,54.6995745 25.787234,52.146383 C25.787234,52.146383 22.212766,50.9548936 23.4893617,43.7208511 C23.4893617,43.7106383 23.7446809,41.2425532 25.787234,44.1361702 Z" id="Path" fill="#FFDF40"></path>
                    <path d="M34.2978723,25.5829787 C34.2978723,25.5829787 35.4042553,22.093617 37.787234,22.093617 C41.0590207,22.2133478 44.2971361,22.7979279 47.4042553,23.8297872 L47.4042553,21.2425532 C47.4042553,21.2425532 47.4893617,17.9234043 43.6595745,19.2 C43.6595745,19.2 39.4893617,21.1574468 41.8723404,17.7531915 C41.8723404,17.7531915 44.9361702,12.6468085 48.9361702,14.4340426 C48.9361702,14.4340426 52.5957447,15.4553191 50.7234043,20.8170213 C50.7234043,20.8170213 47.7889362,27.2 51.2578723,27.4553191 C51.2578723,27.4553191 52.9361702,27.2851064 52.8510638,28.7319149 C52.8510638,28.7319149 53.2765957,30.2638298 51.5744681,30.3489362 C51.5744681,30.3489362 48.3404255,30.8595745 48,32.3914894 C48,32.3914894 46.8085106,33.4978723 45.8723404,32.3914894 C45.8723404,32.3914894 44.8510638,31.4553191 46.0425532,30.093617 C46.0425532,30.093617 47.8297872,28.0510638 42.3829787,27.3702128 C42.3829787,27.3702128 37.106383,26.5191489 35.4042553,28.6468085 C35.4042553,28.6468085 33.0212766,31.4553191 33.787234,27.2851064 L34.2978723,25.5829787 Z" id="Path" fill="#FFDF40"></path>
                    <path d="M60.7080851,17.7259574 L58.6110638,23.4689362 C58.6110638,23.4689362 57.9302128,24.8748936 59.6595745,25.0995745 C59.6595745,25.0995745 62.4102128,26.8595745 60.3131915,27.5982979 C59.3293617,27.9387234 58.0323404,27.6289362 56.2280851,28.4493617 C55.6970213,28.6910638 52.8919149,29.1302128 54.3489362,26.8017021 C54.852766,25.9948936 55.652766,26.066383 56.2008511,23.4689362 C56.7144558,21.2617644 57.4430414,19.1102135 58.3761702,17.0451064 C58.3761702,17.0451064 58.9446809,15.0570213 59.3974468,15.6255319 C59.4042553,15.6255319 61.0893617,16.6808511 60.7080851,17.7259574 Z" id="Path" fill="#FFDF40"></path>
                    <path d="M60.4255319,21.0723404 L64,20.7319149 L65.3038298,22.6621277 C65.3038298,22.6621277 62.1276596,22.532766 60.3676596,23.0025532 C60.3676596,23.0025532 58.893617,23.4417021 59.8025532,22.0868085 C59.9583104,21.7194001 60.1683071,21.3774382 60.4255319,21.0723404 Z" id="Path" fill="#FFDF40"></path>
                    <path d="M60.4255319,15.5234043 C60.4255319,15.5234043 63.547234,18.1787234 67.972766,25.44 C67.972766,25.44 69.2187234,28.4493617 71.547234,26.3489362 C71.547234,26.3489362 75.0638298,23.853617 72.5685106,22.6042553 C72.5685106,22.6042553 71.1489362,22.7165957 68.9361702,18.0085106 L65.9302128,13.1846809 C65.9302128,13.1846809 65.3038298,11.6323404 62.4068085,11.7685106 L57.5217021,12.4493617 C57.5217021,12.4493617 55.8195745,12.6195745 55.8195745,13.5251064 C55.8195745,13.5251064 55.5914894,14.7165957 58.0323404,14.6042553 C58.9228978,14.5662343 59.7893821,14.8990234 60.4255319,15.5234043 L60.4255319,15.5234043 Z" id="Path" fill="#FFDF40"></path>
                    <path d="M75.7446809,20.8170213 C75.7446809,20.8170213 76.347234,18.7744681 77.3617021,18.2638298 C77.3617021,18.2638298 80.5106383,18.2638298 80.4255319,20.8170213 C80.4255319,20.8170213 80.1702128,22.0085106 79.7446809,22.5191489 C79.7446809,22.5191489 78.9787234,23.7106383 79.8297872,24.306383 C79.8297872,24.306383 81.3617021,25.5387234 79.8297872,27.4348936 C79.8297872,27.4348936 77.572766,29.9642553 75.3191489,27.4348936 C75.3191489,27.4348936 73.8723404,26.7744681 75.7446809,20.8170213 Z" id="Path" fill="#FFDF40"></path>
                    <path d="M93.0212766,25.412766 C93.0212766,25.412766 91.4587234,24.8170213 89.9574468,27.0944681 L88.1702128,29.4978723 C88.1702128,29.4978723 86.2978723,33.4978723 88.1702128,34.093617 C88.1702128,34.093617 93.5319149,34.8595745 93.0212766,32.3914894 C93.0212766,32.3914894 92.3029787,30.5531915 94.427234,28.8885106 L94.6382979,28.7319149 C97.0212766,27.0297872 94.1276596,25.8382979 94.1276596,25.8382979 L93.0212766,25.412766 Z" id="Path" fill="#FFDF40"></path>
                    <path d="M96.7829787,20.9531915 C90.8731915,18.7982979 86.7574468,21.572766 86.7574468,21.572766 L86.5225532,21.6680851 L86.4680851,21.4978723 C86.4680851,21.4978723 85.9574468,16.5617021 80.5106383,13.412766 C80.5106383,13.412766 72.2859574,9.92340426 73.4638298,14.1787234 C73.4638298,14.1787234 73.5319149,16.4765957 78.6382979,17.3276596 C78.6382979,17.3276596 82.893617,18.7710638 84.5106383,23.0706383 C84.5274507,23.1532657 84.5623257,23.2311533 84.612766,23.2987234 C85.0212766,25.3412766 87.5982979,24.2212766 87.5982979,24.2212766 C91.9353191,22.7029787 94.9821277,24.9021277 94.9821277,24.9021277 C98.9106383,28.2723404 100.718298,26.8493617 100.718298,26.8493617 C104.735319,25.0212766 96.7829787,20.9531915 96.7829787,20.9531915 Z" id="Path" fill="#FFDF40"></path>
                    <path d="M104.354043,38.2093617 L98.226383,38.2365957 C98.226383,38.2365957 96.6740426,38.0868085 97.0621277,39.7889362 C97.0621277,39.7889362 96.3812766,42.9787234 94.9480851,41.266383 C94.267234,40.466383 94.1242553,39.1421277 92.7319149,37.7395745 C92.32,37.3276596 90.9310638,34.8493617 93.6204255,35.4042553 C94.5565957,35.5982979 94.7676596,36.3744681 97.3923404,35.9829787 C99.6411251,35.6982445 101.912387,35.6343938 104.173617,35.7923404 C104.173617,35.7923404 106.21617,35.6323404 105.858723,36.2553191 C105.87234,36.2553191 105.46383,38.2059574 104.354043,38.2093617 Z" id="Path" fill="#FFDF40"></path>
                    <path d="M101.106383,39.1080851 L102.665532,42.3421277 L101.30383,44.2348936 C101.30383,44.2348936 100.32,41.2119149 99.2612766,39.7242553 C99.2612766,39.7242553 98.3387234,38.4953191 99.9217021,38.8731915 C100.325938,38.8932985 100.725057,38.9724343 101.106383,39.1080851 Z" id="Path" fill="#FFDF40"></path>
                    <path d="M106.318298,37.1778723 C106.318298,37.1778723 104.91234,41.0280851 99.6391489,47.7004255 C99.6391489,47.7004255 97.2561702,49.9165957 100.030638,51.3668085 C100.030638,51.3668085 103.594894,53.8008511 103.897872,51.026383 C103.897872,51.026383 103.298723,49.7361702 106.944681,46.0255319 L110.42383,41.5319149 C110.42383,41.5319149 111.662979,40.4051064 110.529362,37.732766 L108.194043,33.3889362 C108.194043,33.3889362 107.445106,31.8570213 106.594043,32.1804255 C106.594043,32.1804255 105.399149,32.3812766 106.35234,34.6280851 C106.691499,35.4466498 106.67919,36.3686542 106.318298,37.1778723 Z" id="Path" fill="#FFDF40"></path>
                </g>
                <g id="Layer_3" transform="translate(14.297872, 80.000000)" fill="#FFDF40" fill-rule="nonzero">
                    <path d="M9.87234043,0.817021277 C9.87234043,0.817021277 10.2978723,2.51914894 9.10638298,2.6893617 C7.62718792,3.54271103 6.05713172,4.22782646 4.42553191,4.73191489 C4.42553191,4.73191489 2.89361702,5.83829787 2.04255319,4.73191489 C2.04255319,4.73191489 1.36170213,3.45531915 0.595744681,4.30638298 C0.595744681,4.30638298 -0.170212766,4.81702128 0.595744681,6.09361702 C0.595744681,6.09361702 3.06382979,10.1787234 4.08510638,13.3276596 C4.08510638,13.3276596 7.06382979,18.6042553 10.7234043,15.3702128 C10.7234043,15.3702128 12.5957447,12.9021277 10.0425532,10.3489362 C10.0425532,10.3489362 8.85106383,9.49787234 9.19148936,11.3702128 C9.19148936,11.3702128 9.61702128,13.8382979 6.38297872,13.0723404 C6.38297872,13.0723404 4.76595745,12.9021277 3.4893617,9.24255319 L12.2553191,4.73191489 C12.2553191,4.73191489 14.72,4.02723404 12.2553191,1.92340426 C11.7548936,1.49787234 10.08,-0.769361702 9.87234043,0.817021277 Z" id="Path"></path>
                    <path d="M8.96340426,7.62553191 C9.25779616,9.8097745 11.1481277,11.4229356 13.3514894,11.3702128 C13.3514894,11.3702128 17.2731915,10.3829787 15.7174468,6.77446809 C15.4280851,6.09361702 14.8561702,5.62382979 13.3514894,5.07234043 C13.3514894,5.07234043 11.6868085,4.56170213 13.3514894,6.37617021 C13.8042553,6.87319149 14.1004255,8.4187234 12.0714894,8.75914894 C11.5131915,8.85106383 10.893617,9.17106383 10.052766,7.7106383 C9.91659574,7.46212766 8.85106383,5.98468085 8.96340426,7.62553191 Z" id="Path"></path>
                    <path d="M18.2706383,15.3974468 C18.2706383,15.3974468 20.653617,14.6042553 17.8723404,13.8110638 L14.6382979,13.8110638 C14.6382979,13.8110638 10.7812766,14.8868085 10.9514894,19.9387234 C10.9514894,19.9387234 10.7812766,26.0085106 17.133617,27.2578723 C17.133617,27.2578723 22.866383,28.4493617 24.5685106,21.6953191 C24.5685106,21.6953191 24.9634043,15.3974468 22.1276596,15.7378723 C22.1276596,15.7378723 19.1217021,15.7378723 20.4255319,17.3276596 C21.7739982,18.5623975 22.2444638,20.488618 21.6170213,22.2059574 C21.6170213,22.2059574 20.8170213,26.747234 16.0817021,25.44 C16.0817021,25.44 11.5165957,23.5676596 14.8085106,17.8961702 C14.8085106,17.8961702 16.0578723,15.6834043 18.2706383,15.3974468 Z" id="Path"></path>
                    <path d="M24.1702128,27.3361702 C24.1702128,27.3361702 20.653617,31.4553191 22.866383,32.2485106 C22.866383,32.2485106 25.8144681,32.1021277 25.76,29.7940426 C25.76,29.7940426 24.6229787,29.5761702 25.9846809,27.3361702 C25.9846809,27.3361702 28.3676596,24.0782979 27.2340426,23.5131915 C27.2340426,23.5131915 26.4953191,22.4680851 24.1702128,27.3361702 Z" id="Path"></path>
                    <path d="M27.9829787,23.4212766 C27.9829787,23.4212766 30.6417021,32.9531915 31.6017021,34.8595745 C31.6017021,34.8595745 33.2493617,39.0570213 34.4408511,35.3702128 L36.7659574,27.5982979 C36.8581869,27.1188556 37.030834,26.6584634 37.2765957,26.2365957 C37.6170213,25.746383 38.1855319,23.2851064 35.9148936,24.2485106 L34.7234043,24.5344681 C34.7234043,24.5344681 33.6442553,25.2153191 34.9514894,25.8382979 C34.9514894,25.8382979 35.8025532,25.8382979 34.7812766,28.6195745 L33.5897872,31.853617 C33.5897872,31.853617 33.3310638,32.6740426 32.7693617,30.9923404 C32.7387234,30.907234 31.8774468,28.4187234 30.1276596,22.4817021 C30.1276596,22.4817021 28.4255319,18.4204255 26.7812766,20.5617021 C26.7812766,20.5617021 25.1914894,22.4817021 27.0638298,22.4238298 C27.0638298,22.4340426 27.7446809,22.0017021 27.9829787,23.4212766 Z" id="Path"></path>
                    <path d="M42.893617,37.8110638 C43.6834043,37.6680851 45.6170213,37.3004255 43.6323404,34.6893617 L40.1702128,30.8323404 C40.1702128,30.8323404 37.8451064,27.5982979 40.1702128,25.8961702 C40.1702128,25.8961702 40.4868085,25.44 41.746383,25.3855319 C41.746383,25.3855319 43.7889362,25.6476596 41.9608511,26.6859574 C41.8961702,26.7234043 41.8246809,26.7642553 41.746383,26.8017021 C39.547234,27.9387234 42.6485106,29.6714894 43.4042553,30.2638298 C44.4487136,31.1885954 45.3986344,32.2149204 46.24,33.3276596 C47.067234,34.4408511 49.0621277,38.1174468 45.5591489,38.8323404 C44.786383,38.9889362 40.6161702,39.0502128 42.5531915,37.8655319 L42.893617,37.8110638 Z" id="Path"></path>
                    <path d="M39.7719149,35.1421277 C39.84,35.7446809 39.3770213,36.8442553 40.2280851,37.5251064 C40.2280851,37.5251064 41.3923404,38.7744681 39.1353191,38.6042553 C38.3961611,38.3414204 37.7500475,37.8680772 37.2765957,37.2425532 C37.2765957,37.2425532 35.7753191,36.2212766 37.6170213,34.8595745 C37.6034043,34.8595745 39.6017021,33.5795745 39.7719149,35.1421277 Z" id="Path"></path>
                    <path d="M44.5957447,26.1787234 L46.4680851,26.1787234 C46.4680851,26.1787234 48.1395745,26.2910638 47.5574468,28.1089362 C47.5574468,28.1089362 46.4102128,30.8868085 44.9940426,28.1089362 C44.9295603,27.5929115 44.6641023,27.1231609 44.2553191,26.8017021 C44.2553191,26.8017021 43.1761702,26.1787234 44.5957447,26.1787234 Z" id="Path"></path>
                    <path d="M52.5106383,29.4706383 L49.9302128,35.1148936 C49.9302128,35.1148936 48.7659574,37.6102128 48.027234,37.8655319 C48.027234,37.8655319 45.8417021,38.8595745 47.5574468,39.3429787 L51.5744681,39.3429787 C51.5744681,39.3429787 52.7080851,39.3123404 51.5744681,38.1514894 C51.5744681,38.1514894 49.9302128,37.5829787 50.893617,36.0510638 L53.3889362,30.7744681 C53.3889362,30.7744681 52.9225532,28.5685106 52.5106383,29.4706383 Z" id="Path"></path>
                    <path d="M52.7387234,35.7106383 C52.7387234,35.7106383 55.1217021,35.7787234 55.4893617,35.7106383 C55.8570213,35.6425532 56.4697872,35.0297872 55.5302128,34.2978723 L52.7387234,34.2978723 C52.7387234,34.2978723 51.1353191,35.7106383 52.7387234,35.7106383 Z" id="Path"></path>
                    <path d="M52.5548936,28.0919149 L57.787234,36.2621277 C57.787234,36.2621277 59.3191489,39.666383 61.5319149,38.4340426 C61.5319149,38.4340426 63.1489362,37.1982979 62.5531915,36.0068085 C62.5531915,36.0068085 62.2570213,35.0093617 60.8510638,35.0195745 C60.8510638,35.0195745 60,35.7514894 56.5957447,29.572766 C56.5957447,29.572766 55.1489362,26.5089362 54.2978723,26.5497872 L52.0238298,26.5497872 C52.0238298,26.5497872 50.4238298,26.8595745 52.5548936,28.0919149 Z" id="Path"></path>
                    <path d="M61.5591489,25.44 C62.459292,25.5824672 63.3789739,25.3580648 64.1123404,24.8170213 C64.1123404,24.8170213 66.3251064,23.1148936 65.0791489,26.8017021 C65.0791489,26.8017021 64.4221277,27.5404255 65.4604255,30.093617 C65.8908629,31.0239858 66.2327957,31.9927955 66.4817021,32.987234 C66.4817021,32.987234 66.9378723,34.9719149 68.0714894,34.747234 C68.0714894,34.747234 69.7157447,34.24 69.4331915,35.7412766 C69.4331915,35.7412766 69.8314894,37.0723404 67.9591489,36.7897872 C67.9591489,36.7897872 66.4714894,36.5548936 65.5080851,37.3548936 C65.0280851,37.7531915 62.7846809,38.6042553 63.0229787,37.3548936 C63.0229787,37.3548936 62.852766,36.7931915 63.8740426,35.7412766 C63.8740426,35.7412766 65.1778723,35.652766 63.4178723,31.4553191 L62.1719149,28.1089362 C62.1719149,28.1089362 61.7157447,27.0876596 61.092766,27.2 C61.092766,27.2 60.4119149,27.3123404 60.6944681,26.1208511 C60.7080851,26.1208511 60.5651064,25.4331915 61.5591489,25.44 Z" id="Path"></path>
                    <path d="M70.6961702,24.4255319 C70.6961702,24.4255319 72.2280851,23.7651064 73.133617,26.56 L74.6655319,29.5251064 C74.6655319,29.5251064 77.106383,34.6314894 78.6961702,31.9659574 C78.6961702,31.9659574 79.7719149,28.0204255 78.0153191,28.5617021 C78.0153191,28.5617021 77.7293617,29.8246809 75.2919149,24.9429787 L73.4740426,21.5965957 C73.4740426,21.5965957 72.0578723,19.4961702 71.2068085,21.5965957 C71.2068085,21.5829787 69.6612766,24.3370213 70.6961702,24.4255319 Z" id="Path"></path>
                    <path d="M77.3889362,20.6502128 L77.3889362,22.9446809 C77.3981804,23.4587003 77.2812952,23.9671512 77.0485106,24.4255319 C77.0485106,24.4255319 75.6868085,27.2646809 77.6170213,26.692766 C77.6170213,26.692766 78.0697872,26.6314894 78.0153191,26.2365957 C78.0153191,26.2365957 77.8995745,25.4297872 80.3982979,26.7676596 C80.3982979,26.7676596 85.787234,28.2689362 86.4102128,26.7676596 C86.4102128,26.7676596 87.2612766,22.8323404 85.5046809,22.9446809 C85.5046809,22.9446809 84.3676596,22.7165957 83.8025532,24.4187234 C83.8025532,24.4187234 84.2553191,25.2697872 81.3038298,24.306383 C80.4086105,23.9274435 79.4180913,23.8346938 78.4680851,24.0408511 C78.4680851,24.0408511 79.0502128,18.6587234 78.6961702,17.8961702 C78.532766,17.5557447 78.4102128,15.6834043 77.3889362,17.0451064 C77.1506383,17.3651064 77.3889362,17.7259574 76.2553191,18.1787234 C76.2553191,18.1787234 74.6110638,19.1421277 76.2553191,19.2578723 L77.3889362,19.4280851 L77.3889362,20.6502128 Z" id="Path"></path>
                    <path d="M84.5446809,14.1140426 L87.0570213,19.7923404 C87.0570213,19.7923404 88.1531915,22.3182979 87.853617,23.04 C87.853617,23.04 87.1455319,25.3344681 88.6468085,24.3676596 L91.3123404,21.3651064 C91.3123404,21.3651064 92.0442553,20.4970213 90.4204255,20.5753191 C90.4204255,20.5753191 88.9021277,21.4297872 88.3982979,19.6902128 L86.107234,14.3217021 C86.107234,14.3217021 84.146383,13.2085106 84.5446809,14.1140426 Z" id="Path"></path>
                    <path d="M89.3651064,18.0868085 C89.3651064,18.0868085 90.9889362,16.3574468 91.1931915,16.027234 C91.3974468,15.6970213 91.3225532,14.8357447 90.1719149,15.0570213 L88.32,17.147234 C88.32,17.147234 88.3029787,19.2851064 89.3651064,18.0868085 Z" id="Path"></path>
                    <path d="M83.5438298,13.1676596 L93.1302128,14.6757447 C93.1302128,14.6757447 96.6944681,15.7855319 97.2391489,13.3140426 C97.2391489,13.3140426 97.3889362,11.2714894 96.1021277,10.9310638 C96.1021277,10.9310638 95.1557447,10.4919149 94.2331915,11.5506383 C94.2331915,11.5506383 94.2161702,12.6740426 87.3395745,11.1251064 C87.3395745,11.1251064 84.0885106,10.1753191 83.5574468,10.8391489 L82.0493617,12.5412766 C82.0493617,12.5412766 81.2085106,13.9574468 83.5438298,13.1676596 Z" id="Path"></path>
                    <path d="M88.3846809,3.28851064 C89.1352597,2.77464016 89.6508314,1.98352547 89.8178723,1.0893617 C89.8178723,1.0893617 90.267234,-1.66808511 91.8808511,1.87574468 C91.8808511,1.87574468 91.9080851,2.86297872 94.4102128,4.01702128 C95.3601407,4.3977675 96.2719901,4.86736993 97.133617,5.41957447 C97.133617,5.41957447 98.8357447,6.55659574 99.492766,5.61361702 C99.492766,5.61361702 100.347234,4.11914894 101.16766,5.4093617 C101.16766,5.4093617 102.369362,6.10723404 100.806809,7.18297872 C100.806809,7.18297872 99.5676596,8.02723404 99.4076596,9.27319149 C99.3293617,9.8893617 98.2842553,12.0374468 97.5965957,10.9753191 C97.5965957,10.9753191 97.0859574,10.6825532 97.1131915,9.21531915 C97.1131915,9.21531915 98.0051064,8.2587234 93.8485106,6.4 L90.6485106,4.81021277 C90.6485106,4.81021277 89.627234,4.37787234 89.2425532,4.88510638 C89.2425532,4.88510638 88.8238298,5.43659574 88.2212766,4.37106383 C88.2280851,4.36765957 87.652766,3.96595745 88.3846809,3.28851064 Z" id="Path"></path>
                </g>
            </g>
        </g>
    </g>
</svg>